<svg id="Capa_1" enable-background="new 0 0 512 512" height="40px" viewBox="0 0 512 512" xmlns="http://www.w3.org/2000/svg"><g><g><path d="m430.17 0h-237.332c-4.141 0-7.498 3.356-7.498 7.498s3.357 7.498 7.498 7.498h237.332c5.079 0 9.211 4.133 9.211 9.211v278.257c0 4.141 3.357 7.498 7.498 7.498s7.498-3.356 7.498-7.498v-278.258c0-13.347-10.859-24.206-24.207-24.206z"/><path d="m446.879 329.898c-4.141 0-7.498 3.356-7.498 7.498v78.657s-61.616-.043-61.63-.043c-5.283 0-10.251 2.057-13.989 5.791-3.741 3.739-5.801 8.71-5.801 14v61.204h-276.131c-5.079 0-9.211-4.133-9.211-9.211v-463.588c0-5.078 4.132-9.211 9.211-9.211h76.324c4.141 0 7.498-3.356 7.498-7.498s-3.357-7.497-7.498-7.497h-76.324c-13.348 0-24.207 10.859-24.207 24.206v463.587c0 13.348 10.859 24.207 24.207 24.207h283.629c.613 0 1.211-.082 1.804-.229 1.315-.327 2.521-.996 3.482-1.952 0 0 81.413-80.939 81.421-80.947 1.423-1.415 2.212-3.294 2.212-5.316v-86.16c-.001-4.141-3.358-7.498-7.499-7.498zm-73.923 156.578v-50.675c0-1.282.499-2.487 1.406-3.392.905-.905 2.109-1.403 3.39-1.403h.003l50.961.035z"/><path d="m100.151 163.982c0 4.141 3.357 7.498 7.498 7.498h296.704c4.141 0 7.498-3.356 7.498-7.498 0-4.141-3.357-7.498-7.498-7.498h-296.705c-4.141.001-7.497 3.357-7.497 7.498z"/><path d="m404.352 193.291h-227.109c-4.141 0-7.498 3.356-7.498 7.498s3.357 7.498 7.498 7.498h227.109c4.141 0 7.498-3.356 7.498-7.498s-3.357-7.498-7.498-7.498z"/><path d="m107.648 208.287h35.293c4.141 0 7.498-3.356 7.498-7.498s-3.357-7.498-7.498-7.498h-35.293c-4.141 0-7.498 3.356-7.498 7.498s3.357 7.498 7.498 7.498z"/><path d="m404.352 230.098h-97.507c-4.141 0-7.498 3.356-7.498 7.498s3.357 7.498 7.498 7.498h97.507c4.141 0 7.498-3.356 7.498-7.498s-3.357-7.498-7.498-7.498z"/><path d="m107.648 245.094h164.469c4.141 0 7.498-3.356 7.498-7.498s-3.357-7.498-7.498-7.498h-164.469c-4.141 0-7.498 3.356-7.498 7.498s3.357 7.498 7.498 7.498z"/><path d="m404.352 266.905h-296.704c-4.141 0-7.498 3.356-7.498 7.498 0 4.141 3.357 7.498 7.498 7.498h296.704c4.141 0 7.498-3.356 7.498-7.498 0-4.141-3.357-7.498-7.498-7.498z"/><path d="m411.85 311.21c0-4.141-3.357-7.498-7.498-7.498h-143.251c-4.141 0-7.498 3.356-7.498 7.498 0 4.141 3.357 7.498 7.498 7.498h143.251c4.141 0 7.498-3.357 7.498-7.498z"/><path d="m107.648 318.708h119.313c4.141 0 7.498-3.356 7.498-7.498 0-4.141-3.357-7.498-7.498-7.498h-119.313c-4.141 0-7.498 3.356-7.498 7.498.001 4.141 3.357 7.498 7.498 7.498z"/><path d="m324.523 348.017c0-4.141-3.357-7.498-7.498-7.498h-115.085c-4.141 0-7.498 3.356-7.498 7.498 0 4.141 3.357 7.498 7.498 7.498h115.085c4.141-.001 7.498-3.357 7.498-7.498z"/><path d="m107.648 355.514h59.657c4.141 0 7.498-3.356 7.498-7.498 0-4.141-3.357-7.498-7.498-7.498h-59.657c-4.141 0-7.498 3.356-7.498 7.498.001 4.142 3.357 7.498 7.498 7.498z"/><path d="m339.089 120.143 7.324-40.58 12.055 40.86c.026.09.054.178.084.267 1.236 3.68 4.666 6.145 8.545 6.144h.047c3.898-.02 7.326-2.524 8.529-6.231.028-.086.054-.173.079-.26l11.639-40.829 7.779 40.706c.777 4.067 4.704 6.743 8.772 5.956 4.068-.777 6.734-4.704 5.957-8.772l-12.525-65.538c-.818-4.009-4.241-6.97-8.327-7.2-4.083-.241-7.82 2.326-9.083 6.22-.027.085-.054.171-.079.258l-12.885 45.204-13.36-45.282c-.026-.09-.054-.179-.084-.267-1.304-3.881-5.064-6.399-9.15-6.124-4.084.274-7.476 3.272-8.264 7.377l-11.809 65.428c-.736 4.075 1.972 7.974 6.047 8.71 4.069.736 7.974-1.972 8.709-6.047z"/><path d="m136.497 60.139c4.141 0 7.498-3.356 7.498-7.498s-3.357-7.498-7.498-7.498h-27.032c-4.141 0-7.498 3.356-7.498 7.498v66.695c0 4.141 3.357 7.498 7.498 7.498s7.498-3.356 7.498-7.498v-26.481h17.387c4.141 0 7.498-3.356 7.498-7.498 0-4.141-3.357-7.498-7.498-7.498h-17.387v-17.72z"/><path d="m308.641 69.61c0-13.762-11.64-24.959-25.947-24.959h-17.854c-.004 0-.007 0-.011 0s-.007 0-.011 0c-4.141 0-7.498 3.356-7.498 7.498v67.187c0 4.141 3.357 7.498 7.498 7.498s7.498-3.356 7.498-7.498v-21.406l23.199 26.359c1.482 1.684 3.551 2.544 5.631 2.544 1.759 0 3.526-.616 4.951-1.87 3.108-2.735 3.411-7.473.675-10.582l-18.044-20.502c11.406-2.622 19.913-12.505 19.913-24.269zm-25.947 9.964c-2.382 0-6.565.018-10.275.036-.019-3.632-.047-16.163-.058-19.964h10.333c5.937 0 10.952 4.563 10.952 9.964s-5.015 9.964-10.952 9.964z"/><path d="m200.658 44.651c-22.658 0-41.092 18.434-41.092 41.092 0 22.657 18.434 41.091 41.092 41.091s41.091-18.434 41.091-41.091c0-22.658-18.433-41.092-41.091-41.092zm0 67.187c-14.39 0-26.096-11.706-26.096-26.095 0-14.39 11.707-26.096 26.096-26.096s26.096 11.706 26.096 26.096c0 14.389-11.707 26.095-26.096 26.095z"/><path d="m102.799 446.605c5.018 10.248 15.857 17.21 24.373 19.565 2.873.795 5.807 1.179 8.708 1.179 8.082 0 15.897-2.99 21.317-8.455 5.466-5.512 7.97-12.708 9.888-19.018 1.385-4.558 2.659-9.159 3.818-13.794 6.642.029 13.38-.048 18.84-.266.025 6.091 1.874 12.068 7.689 15.678 5.884 3.652 13.857 2.908 19.901-1.835 3.189 3.46 7.453 5.95 12.001 6.909 7.868 1.66 16.557-.35 25.823-5.972 3.54-2.148 4.669-6.759 2.521-10.3-2.148-3.54-6.759-4.668-10.299-2.521-5.902 3.58-10.929 4.964-14.952 4.119-1.905-.401-3.886-1.821-4.93-3.533-.427-.699-.878-1.741-.607-2.726 1.033-3.764-.994-7.691-4.66-9.029-3.666-1.337-7.747.361-9.38 3.906-1.246 2.704-2.741 5.723-4.735 7.318-1.153.925-2.473 1.062-2.776.923-.348-.216-1.392-2.563.28-9.373.655-2.666-.201-5.478-2.23-7.328-1.948-1.778-4.681-2.395-7.192-1.645-2.452.466-11.753.646-21.962.668 1.244-6.401 2.271-12.843 3.075-19.295.512-4.109-2.404-7.855-6.513-8.367-4.111-.509-7.855 2.404-8.367 6.514-.879 7.052-2.038 14.091-3.472 21.077-6.875-.076-12.695-.2-15.292-.328-9.459-.463-18.683-.607-27.531 2.669-6.514 2.411-11.696 7.309-14.218 13.438-2.635 6.408-2.331 13.261.882 19.822zm12.986-14.114c.933-2.268 2.959-4.12 5.557-5.081 4.179-1.547 8.977-1.98 14.067-1.98 2.453 0 4.974.101 7.525.226.153.007 5.316.153 12.526.273-.849 3.216-1.757 6.412-2.722 9.587-1.459 4.8-3.139 9.745-6.188 12.82-3.555 3.584-9.734 4.945-15.381 3.383-6.046-1.672-12.453-6.705-14.902-11.707-1.308-2.671-1.465-5.132-.482-7.521z"/></g></g></svg>