<svg id="Capa_1" enable-background="new 0 0 512 512" height="40px" viewBox="0 0 512 512" xmlns="http://www.w3.org/2000/svg"><g><g><circle cx="306.508" cy="391.362" r="10.102"/><circle cx="205.492" cy="391.362" r="10.102"/><path d="m421.67 0h-331.34c-15.274 0-27.7 12.426-27.7 27.7v339.3c0 4.143 3.358 7.5 7.5 7.5s7.5-3.357 7.5-7.5v-339.3c0-7.003 5.697-12.7 12.7-12.7h331.34c7.003 0 12.7 5.697 12.7 12.7v105.49c0 4.143 3.357 7.5 7.5 7.5s7.5-3.357 7.5-7.5v-105.49c0-15.274-12.427-27.7-27.7-27.7z"/><path d="m441.87 160.89c-4.143 0-7.5 3.357-7.5 7.5v283.58c0 7.003-5.697 12.7-12.7 12.7h-331.34c-7.003 0-12.7-5.697-12.7-12.7v-49.77c0-4.143-3.358-7.5-7.5-7.5s-7.5 3.357-7.5 7.5v49.77c0 15.274 12.426 27.7 27.7 27.7h4.625v24.83c0 4.143 3.358 7.5 7.5 7.5h32.325c4.142 0 7.5-3.357 7.5-7.5v-24.83h227.44v24.83c0 4.143 3.357 7.5 7.5 7.5h32.325c4.143 0 7.5-3.357 7.5-7.5v-24.83h4.625c15.273 0 27.7-12.426 27.7-27.7v-283.58c0-4.143-3.357-7.5-7.5-7.5zm-314.59 336.11h-17.325v-17.33h17.325zm274.765 0h-17.325v-17.33h17.325z"/><path d="m417.045 39.825c0-4.143-3.357-7.5-7.5-7.5h-307.09c-4.142 0-7.5 3.357-7.5 7.5v270.724c0 4.143 3.358 7.5 7.5 7.5h307.09c4.143 0 7.5-3.357 7.5-7.5zm-307.09 126.699h292.09v17.325h-292.09zm68.691-78.211v-8.663h17.325v4.622 67.252h-17.325zm64.651-4.041v-4.622h25.406v4.622 67.252h-25.406zm72.731 0v-4.622h17.325v8.663 63.211h-17.325zm49.651 67.252h-17.325v-55.711h17.325zm-64.651 0h-17.325v-59.752h17.325zm-72.731 0h-17.325v-59.752h17.325zm-64.651 0h-17.325v-55.711h17.325zm238.399-104.199v104.199h-21.366v-63.211c0-4.143-3.357-7.5-7.5-7.5h-24.825v-8.663c0-4.143-3.357-7.5-7.5-7.5h-32.325c-4.143 0-7.5 3.357-7.5 7.5v4.622h-17.325v-4.622c0-4.143-3.357-7.5-7.5-7.5h-40.406c-4.142 0-7.5 3.357-7.5 7.5v4.622h-17.325v-4.622c0-4.143-3.358-7.5-7.5-7.5h-32.325c-4.142 0-7.5 3.357-7.5 7.5v8.663h-24.825c-4.142 0-7.5 3.357-7.5 7.5v63.211h-21.366v-104.199zm-234.358 255.724h-17.325v-55.711h17.325zm15-71.874h17.325v71.874h-17.325zm32.325 12.122h17.325v59.752h-17.325zm32.325-12.122h17.326v71.874h-17.326zm32.326 12.122h17.324v59.752h-17.324zm32.325 59.752-.001-71.874h17.325v71.874zm32.325 0v-55.711h17.325v55.711zm32.326 0v-63.211c0-4.143-3.357-7.5-7.5-7.5h-24.826v-8.663c0-4.143-3.357-7.5-7.5-7.5h-32.325c-4.143 0-7.5 3.357-7.5 7.5v4.622h-17.324v-4.622c0-4.143-3.357-7.5-7.5-7.5h-32.326c-4.142 0-7.5 3.357-7.5 7.5v4.622h-17.325v-4.622c0-4.143-3.358-7.5-7.5-7.5h-32.325c-4.142 0-7.5 3.357-7.5 7.5v8.663h-24.825c-4.142 0-7.5 3.357-7.5 7.5v63.211h-25.407v-104.199h292.09v104.199z"/><path d="m94.955 439.85c0 4.143 3.358 7.5 7.5 7.5h137.382c4.142 0 7.5-3.357 7.5-7.5v-96.976c0-4.143-3.358-7.5-7.5-7.5h-137.382c-4.142 0-7.5 3.357-7.5 7.5zm15-89.476h122.382v81.976h-122.382z"/><path d="m409.473 335.374h-137.382c-4.143 0-7.5 3.357-7.5 7.5v96.976c0 4.143 3.357 7.5 7.5 7.5h137.382c4.143 0 7.5-3.357 7.5-7.5v-96.976c0-4.143-3.358-7.5-7.5-7.5zm-7.5 96.976h-122.382v-81.976h122.382z"/></g></g></svg>