<?xml version="1.0" encoding="UTF-8"?>
<!DOCTYPE svg PUBLIC "-//W3C//DTD SVG 1.1//EN" "http://www.w3.org/Graphics/SVG/1.1/DTD/svg11.dtd">
<!-- Creator: CorelDRAW 2019 (64-Bit) -->
<svg xmlns="http://www.w3.org/2000/svg" xml:space="preserve" width="20px" height="20px" version="1.1" style="shape-rendering:geometricPrecision; text-rendering:geometricPrecision; image-rendering:optimizeQuality; fill-rule:evenodd; clip-rule:evenodd"
viewBox="0 0 20 20"
 xmlns:xlink="http://www.w3.org/1999/xlink"
 xmlns:xodm="http://www.corel.com/coreldraw/odm/2003"
 enable-background="new 0 0 512 512">
 <defs>
  <style type="text/css">
   <![CDATA[
    .fil0 {fill:#F3A610;fill-rule:nonzero}
   ]]>
  </style>
 </defs>
 <g id="Layer_x0020_1">
  <metadata id="CorelCorpID_0Corel-Layer"/>
  <path class="fil0" d="M10 0c-4.04,0 -7.32,3.28 -7.32,7.32 0,1.51 0.45,2.96 1.31,4.19l5.77 8.36c0.05,0.08 0.14,0.13 0.24,0.13 0.1,0 0.19,-0.05 0.24,-0.13l5.77 -8.36c0.86,-1.23 1.31,-2.68 1.31,-4.19 0,-4.04 -3.28,-7.32 -7.32,-7.32zm5.53 11.18l-5.53 8.01 -5.53 -8.01c-0.79,-1.14 -1.21,-2.47 -1.21,-3.86 0,-3.71 3.02,-6.73 6.74,-6.73 3.72,0 6.74,3.02 6.74,6.73 0,1.39 -0.42,2.72 -1.21,3.86l0 0z"/>
  <path class="fil0" d="M13.81 7.32c0,-2.1 -1.71,-3.8 -3.81,-3.8 -2.1,0 -3.81,1.7 -3.81,3.8 0,2.1 1.71,3.81 3.81,3.81 2.1,0 3.81,-1.71 3.81,-3.81zm-7.03 0c0,-1.77 1.44,-3.22 3.22,-3.22 1.78,0 3.22,1.45 3.22,3.22 0,1.78 -1.44,3.23 -3.22,3.23 -1.78,0 -3.22,-1.45 -3.22,-3.23z"/>
  <path class="fil0" d="M10 1.17c-1.42,0 -2.8,0.49 -3.89,1.39 -0.13,0.1 -0.15,0.29 -0.04,0.41 0.1,0.13 0.28,0.15 0.41,0.04 0.99,-0.81 2.24,-1.25 3.52,-1.25 3.07,0 5.57,2.49 5.57,5.56 0,3.07 -2.5,5.57 -5.57,5.57 -3.07,0 -5.57,-2.5 -5.57,-5.57 0,-1.28 0.45,-2.53 1.26,-3.52 0.1,-0.12 0.08,-0.31 -0.04,-0.41 -0.13,-0.1 -0.31,-0.09 -0.41,0.04 -0.9,1.1 -1.39,2.48 -1.39,3.89 0,3.4 2.76,6.16 6.15,6.16 3.39,0 6.15,-2.76 6.15,-6.16 0,-3.39 -2.76,-6.15 -6.15,-6.15z"/>
 </g>
</svg>
