<svg id="Layer_1" enable-background="new 0 0 512.002 512.002" height="40px" viewBox="0 0 512.002 512.002" xmlns="http://www.w3.org/2000/svg"><g><path d="m353.588 0c-15.844 0-31.505 2.342-46.549 6.961-3.96 1.216-6.185 5.411-4.969 9.371s5.414 6.179 9.371 4.969c11.237-3.45 22.862-5.474 34.646-6.083v135.697h-43.396c-1.747-37.981-16.744-73.354-42.828-101.016 6.417-5.559 13.352-10.588 20.765-14.977 3.564-2.11 4.742-6.711 2.632-10.274-2.11-3.564-6.712-4.741-10.274-2.632-10.416 6.168-19.983 13.472-28.59 21.688-.196.154-.387.319-.571.496-24.836 23.873-41.365 55.362-46.729 89.575-12.381-3.122-25.366-4.785-38.681-4.785-86.854-.002-158.415 70.43-158.415 158.412 0 87.863 71.447 158.414 158.415 158.414 78.118 0 144.41-56.881 156.495-133.776 12.596 3.162 25.563 4.788 38.678 4.788 85.102 0 158.414-68.622 158.414-158.414 0-89.845-73.381-158.414-158.414-158.414zm104.517 256.506c-7.864-8.381-14.69-17.66-20.342-27.664-2.039-3.607-6.616-4.877-10.22-2.841-3.606 2.038-4.878 6.613-2.841 10.22 6.272 11.101 13.87 21.375 22.604 30.663-23.386 20.233-53.357 33.048-86.22 34.749v-135.719h43.414c.576 12.323 2.551 24.498 5.936 36.285 1.144 3.982 5.301 6.28 9.278 5.14 3.981-1.144 6.282-5.298 5.14-9.278-2.999-10.443-4.772-21.227-5.336-32.146h77.287c-.002.045-.006.09-.008.135-1.839 34.896-16.214 66.521-38.692 90.456zm38.701-105.592h-77.306c1.731-34.049 15.232-65.746 38.602-90.595 22.479 23.936 36.857 55.564 38.696 90.464.003.044.006.087.008.131zm-135.718-135.719c32.852 1.701 62.815 14.508 86.197 34.73-26.068 27.657-41.055 63.02-42.802 100.989h-43.396v-135.719zm-73.004 237.759c.419-.726 1.197-1.175 2.034-1.175h7.231c5.957 23.223 5.959 47.991 0 71.247h-7.231c-.836 0-1.615-.45-2.034-1.176l-19.212-33.274c-.418-.724-.417-1.624.001-2.349zm-94.668-97.422 3.613-6.258c23.189 6.492 44.353 18.758 61.656 35.7l-3.568 6.18c-.418.725-1.198 1.175-2.035 1.175h-38.421c-.837 0-1.617-.45-2.035-1.175l-19.21-33.273c-.418-.724-.418-1.624 0-2.349zm90.73 35.496c-7.644-9.962-15.579-17.99-24.063-25.114h27.587c-.438 8.495-1.61 16.889-3.524 25.114zm-45.302-40.114c-8.617-5.085-17.725-9.382-27.239-12.771 4.041-28.478 16.922-55.939 37.443-77.851 23.384 24.852 36.895 56.56 38.627 90.622zm-115.431 4.617c.419.725.419 1.626 0 2.351l-19.21 33.273c-.418.725-1.198 1.175-2.035 1.175h-38.421c-.837 0-1.617-.45-2.035-1.175l-3.568-6.18c17.223-16.864 38.349-29.177 61.657-35.701zm-108.413 131.871c0-12.043 1.556-24.228 4.48-35.623h7.231c.837 0 1.616.45 2.035 1.175l19.21 33.272c.419.726.419 1.626.001 2.351l-19.211 33.273c-.419.726-1.198 1.176-2.035 1.176h-7.231c-3.034-11.837-4.48-23.961-4.48-35.624zm108.414 131.871-3.613 6.257c-23.107-6.467-44.283-18.688-61.658-35.701l3.568-6.18c.418-.725 1.198-1.175 2.035-1.175h38.421c.837 0 1.617.45 2.035 1.175l19.211 33.275c.419.725.419 1.626.001 2.349zm11.75 9.649 1.241-2.149c3.088-5.353 3.087-12-.002-17.349l-19.211-33.275c-3.09-5.351-8.847-8.674-15.024-8.674h-38.421c-6.179 0-11.936 3.324-15.025 8.675l-1.205 2.086c-9.806-11.949-17.715-25.507-23.281-40.209h2.475c6.179 0 11.936-3.324 15.025-8.676l19.211-33.274c3.089-5.35 3.089-11.996 0-17.349l-19.211-33.273c-3.09-5.351-8.847-8.675-15.025-8.675h-2.475c5.565-14.702 13.476-28.261 23.281-40.21l1.205 2.086c3.09 5.351 8.847 8.675 15.025 8.675h38.421c6.179 0 11.936-3.324 15.025-8.675l19.21-33.273c3.089-5.35 3.09-11.997.001-17.35l-1.241-2.149c7.571-1.24 15.335-1.895 23.251-1.895s15.681.655 23.251 1.895l-1.241 2.149c-3.09 5.351-3.09 11.999 0 17.35l19.21 33.273c3.09 5.351 8.847 8.675 15.025 8.675h38.421c6.179 0 11.936-3.324 15.025-8.675l1.205-2.087c9.806 11.95 17.716 25.508 23.281 40.211h-2.475c-6.179 0-11.936 3.324-15.024 8.675l-19.211 33.273c-3.09 5.352-3.09 12 0 17.35l19.21 33.272c3.089 5.352 8.846 8.677 15.025 8.677h2.475c-5.565 14.702-13.476 28.26-23.281 40.21l-1.205-2.087c-3.09-5.351-8.847-8.675-15.025-8.675h-38.421c-6.178 0-11.935 3.323-15.025 8.675l-19.21 33.274c-3.09 5.351-3.09 11.998 0 17.35l1.24 2.148c-7.57 1.24-15.335 1.895-23.251 1.895s-15.678-.656-23.249-1.895zm61.865-3.392-3.613-6.257c-.418-.725-.419-1.625-.001-2.349l.001-.001 19.209-33.273c.419-.726 1.199-1.176 2.036-1.176h38.421c.837 0 1.617.45 2.035 1.175l3.568 6.18c-17.354 16.993-38.525 29.228-61.656 35.701zm98.126-218.169c4.353-13.404 6.876-27.301 7.536-41.447h43.397v135.703c-10.02-.517-19.914-2.051-29.549-4.62 1.813-30.454-4.905-61.615-21.384-89.636z"/><path d="m192.65 329.351 19.211-33.274c3.089-5.35 3.089-11.996.001-17.348l-.001-.001-19.211-33.273c-3.09-5.351-8.847-8.675-15.025-8.675h-38.421c-6.179 0-11.936 3.324-15.025 8.675l-19.212 33.274c-3.088 5.352-3.088 11.998.001 17.349l19.211 33.273c3.09 5.352 8.847 8.676 15.025 8.676h38.421c6.179-.001 11.936-3.325 15.025-8.676zm-15.025-6.325h-38.421c-.837 0-1.616-.45-2.035-1.176l-19.211-33.272c-.418-.726-.418-1.626 0-2.351l19.211-33.273c.418-.725 1.198-1.175 2.035-1.175h38.421c.837 0 1.617.45 2.035 1.175l19.21 33.272c.419.726.419 1.626.001 2.351l-19.211 33.273c-.419.726-1.198 1.176-2.035 1.176z"/></g></svg>