<svg id="Icons" height="30px" viewBox="0 0 74 74" xmlns="http://www.w3.org/2000/svg"><path d="m55.561 66.5a1 1 0 0 1 -.556-1.832c.872-.581 1.623-1.122 2.295-1.653a1 1 0 1 1 1.24 1.569c-.715.565-1.508 1.137-2.425 1.748a1 1 0 0 1 -.554.168z"/><path d="m37 72a34.97 34.97 0 1 1 32.55-22.111 1 1 0 1 1 -1.86-.738 32.959 32.959 0 1 0 -18.78 18.636 1 1 0 1 1 .72 1.866 34.962 34.962 0 0 1 -12.63 2.347z"/><path d="m63.02 59.88a1 1 0 0 1 -.763-1.647c.607-.716 1.211-1.5 1.846-2.4a1 1 0 0 1 1.634 1.154c-.67.948-1.309 1.778-1.954 2.54a1 1 0 0 1 -.763.353z"/><path d="m37 65.542a28.542 28.542 0 1 1 28.542-28.542 28.574 28.574 0 0 1 -28.542 28.542zm0-55.084a26.542 26.542 0 1 0 26.542 26.542 26.572 26.572 0 0 0 -26.542-26.542z"/><path d="m37 18a1 1 0 0 1 -1-1v-2a1 1 0 0 1 2 0v2a1 1 0 0 1 -1 1z"/><path d="m22.858 23.858a1 1 0 0 1 -.707-.293l-1.414-1.414a1 1 0 0 1 1.414-1.414l1.414 1.414a1 1 0 0 1 -.707 1.707z"/><path d="m17 38h-2a1 1 0 0 1 0-2h2a1 1 0 0 1 0 2z"/><path d="m21.444 53.556a1 1 0 0 1 -.707-1.707l1.414-1.414a1 1 0 1 1 1.414 1.414l-1.414 1.414a1 1 0 0 1 -.707.293z"/><path d="m37 60a1 1 0 0 1 -1-1v-2a1 1 0 0 1 2 0v2a1 1 0 0 1 -1 1z"/><path d="m52.556 53.556a1 1 0 0 1 -.707-.293l-1.414-1.414a1 1 0 1 1 1.414-1.414l1.414 1.414a1 1 0 0 1 -.707 1.707z"/><path d="m59 38h-2a1 1 0 0 1 0-2h2a1 1 0 0 1 0 2z"/><path d="m51.142 23.858a1 1 0 0 1 -.707-1.707l1.414-1.414a1 1 0 0 1 1.414 1.414l-1.414 1.414a1 1 0 0 1 -.707.293z"/><path d="m37 38.25a1 1 0 0 1 -.707-.293l-4.959-4.957a1 1 0 1 1 1.415-1.415l3.251 3.251v-12.836a1 1 0 0 1 2 0v15.25a1 1 0 0 1 -1 1z"/></svg>