<?xml version="1.0" encoding="UTF-8"?>
<!DOCTYPE svg PUBLIC "-//W3C//DTD SVG 1.1//EN" "http://www.w3.org/Graphics/SVG/1.1/DTD/svg11.dtd">
<!-- Creator: CorelDRAW 2019 (64-Bit) -->
<svg xmlns="http://www.w3.org/2000/svg" xml:space="preserve" height="70px" version="1.1" style="shape-rendering:geometricPrecision; text-rendering:geometricPrecision; image-rendering:optimizeQuality; fill-rule:evenodd; clip-rule:evenodd"
viewBox="0 0 200 60"
 xmlns:xlink="http://www.w3.org/1999/xlink"
 xmlns:xodm="http://www.corel.com/coreldraw/odm/2003">
 <defs>
  <style type="text/css">
   <![CDATA[
    .fil4 {fill:#FEFEFE}
    .fil7 {fill:#2B2A29}
    .fil1 {fill:#FECC00}
    .fil0 {fill:#F4A609}
    .fil5 {fill:#E12325}
    .fil3 {fill:#B07633}
    .fil6 {fill:#829947}
    .fil2 {fill:#363685}
   ]]>
  </style>
 </defs>
 <g id="Layer_x0020_1">
  <metadata id="CorelCorpID_0Corel-Layer"/>
  <path class="fil0" d="M34.05 5.8l-2.11 0c-0.31,0 -0.45,-0.08 -0.77,-0.08l-1.61 0c-0.27,0 -0.7,0.16 -0.95,0.27 -0.54,0.25 -1.22,0.18 -1.85,0.23 -0.27,0.02 -0.53,0.01 -0.77,0.03l-0.8 0.05c-0.78,0.01 -3.68,0.12 -4.18,0 -0.25,-0.06 -0.55,-0.09 -0.78,-0.26 -0.65,-0.5 -0.48,-0.93 -1.83,-0.93l-0.65 0.03c-1.05,0 -0.81,0.63 -0.81,1.19 0.01,0.36 0,1.2 0.05,1.57 0.18,1.13 0.53,0.88 0.53,2.43 0,0.22 -0.08,0.56 -0.14,0.74 -0.22,0.64 -0.94,0.73 -0.94,1.79l0 0.73c0,0.32 0.11,0.72 0.24,1.02 0.31,0.69 0.28,1.92 0.13,2.68l-0.12 0.46c-0.08,0.36 -0.02,0.6 -0.08,0.96 -0.05,0.36 0.02,1.1 0.18,1.4 0.09,0.19 0.21,0.3 0.33,0.48 0.11,0.17 0.2,0.35 0.23,0.56 0.09,0.5 0.12,1.05 0.04,1.56l-0.22 1.5c-0.04,0.78 0.05,1.58 -0.06,2.28 -0.19,1.29 0.32,1.8 -0.58,2.91 -0.19,0.23 -0.26,0.53 -0.28,0.84l0 1.19c0,0.68 0.02,1.98 0.13,2.32 0.14,0.4 0.63,3.06 0.85,3.95 0.2,0.78 0.26,0.95 0.18,1.72 -0.01,0.14 0.02,0.17 0.03,0.29 0.02,0.23 -0.01,0.5 0,0.73 0.01,0.43 0.19,0.78 0.19,1.23l0 1.73c0,0.38 -0.08,0.6 -0.08,0.99l0 1.77c0,0.35 0.24,1.12 0.24,2.07 0,1.29 -0.27,1.67 -0.27,2.3 -0.01,0.56 0.02,1.06 -0.12,1.57 -0.04,0.13 -0.11,0.31 -0.11,0.47 0.36,0 0.51,-0.08 0.84,-0.08l3.76 0c0.81,0 0.85,0.31 2.65,0.3 0.22,0 0.45,0.03 0.68,0.05 0.44,0.04 0.76,0.25 1.2,0.26 0.52,0.01 1,0.06 1.52,-0.01 0.38,-0.05 0.61,-0.19 0.92,-0.35 0.09,-0.04 0.2,-0.09 0.3,-0.12 0.52,-0.18 1.74,-0.13 2.26,0.01 0.13,0.03 0.2,0.07 0.31,0.11 0.74,0.22 2.03,0.18 2.75,0.02 0.72,-0.16 1.85,-0.29 2.54,-0.02 0.26,0.1 0.33,0.18 0.52,0.33 0.2,0.16 0.27,0.2 0.55,0.29 0.16,0.05 0.36,0.08 0.57,0.09l0.42 0c0.28,-0.02 0.54,-0.06 0.75,-0.13 0.14,-0.05 0.22,-0.13 0.33,-0.21 0.59,-0.47 0.46,-1.19 2.57,-0.89 0.23,0.03 0.41,0.11 0.59,0.2 0.53,0.27 0.64,0.24 1.36,0.26l1.1 0.09c0.08,0.01 0.25,0.07 0.32,0.1 0.72,0.25 1.05,0.27 1.84,0.27 1.33,0 1.25,-0.77 2.53,-0.77 1.53,0.01 1.77,-0.3 3.11,-0.3 0.73,0 1.1,0.14 1.47,0.52l0.16 0.19c0.06,0.05 0.02,0.02 0.08,0.07 0.36,0.31 0.82,0.33 1.32,0.33 1.71,0 1.13,-1.15 2.88,-1.15 0.64,0 1.08,0.15 1.54,0.53 0.58,0.48 1.71,0.35 2.45,0.35 0.35,0 0.6,-0.04 0.73,-0.27 0.06,-0.11 0.09,-0.32 0.11,-0.57l0 -1.05c-0.02,-0.39 -0.05,-0.74 -0.09,-0.89 -0.08,-0.35 -0.25,-0.54 -0.29,-0.9 -0.09,-0.63 -0.08,-0.41 -0.08,-1.12 0,-0.59 -0.05,-1.04 -0.17,-1.59l-0.1 -1.7c0,-0.22 -0.01,-0.34 -0.05,-0.52 -0.27,-1.05 -0.41,-0.3 -0.41,-2.25 0,-0.15 0.05,-0.21 0.08,-0.35 0.09,-0.39 0.26,-0.55 0.51,-0.83 0.14,-0.15 0.25,-0.32 0.31,-0.57 0.12,-0.51 0.09,-1.08 0.03,-1.59 -0.04,-0.31 -0.08,-0.44 -0.2,-0.65 -0.31,-0.55 -0.41,-1.69 -0.23,-2.38l0.41 -0.89c0.27,-0.71 0.21,-1.95 -0.06,-2.64 -0.37,-0.9 -0.16,-2 -0.29,-2.93l-0.06 -1.55c0,-0.3 0.04,-0.44 0.04,-0.73 0,-0.27 0,-0.54 0,-0.81 0,-0.49 0.1,-1.03 0.02,-1.55 -0.11,-0.72 0.05,-0.59 -0.3,-1.31 -0.35,-0.71 -0.31,-1.86 -0.09,-2.61l0.12 -0.5c0.14,-0.6 0.1,-1.37 0.17,-1.98 0.02,-0.22 0,-0.46 0.03,-0.65 0.19,-1.29 -0.03,-1.23 -0.03,-2.37 0,-0.64 -0.07,-1.21 -0.07,-1.88 0,-1.59 0.24,-1.23 0.45,-2.08 0.16,-0.66 0.13,-1.89 -0.13,-2.47 -0.32,-0.76 -0.32,-1.73 -0.15,-2.53 0.03,-0.12 0.05,-0.15 0.06,-0.29 -0.25,0 -0.33,0.05 -0.51,0.07 -0.44,0.06 -1.2,0.07 -1.63,0 -0.69,-0.13 -0.83,-0.57 -1.74,-0.57 -0.6,0 -1.31,-0.02 -1.87,0.13 -0.77,0.22 -2.13,0.24 -2.85,-0.09 -0.61,-0.27 -1.13,-0.26 -1.8,-0.26 -0.71,0 -0.96,0.33 -1.4,0.78l-0.04 0.04c-0.17,0.15 -0.35,0.21 -0.56,0.28 -0.54,0.18 -1.48,0.1 -1.9,-0.16 -0.16,-0.1 -0.27,-0.2 -0.43,-0.3 -0.55,-0.35 -1.29,-0.22 -1.92,-0.22 -0.55,0 -0.92,0.11 -1.39,0.11l-1.76 0c-0.42,0 -0.77,-0.11 -1.19,-0.11 -0.79,-0.01 -1.65,0.04 -2.3,-0.32 -0.06,-0.03 -0.15,-0.08 -0.19,-0.1l-0.51 -0.15c-0.08,-0.02 -0.19,-0.04 -0.31,-0.05l-0.9 0c-0.32,0.03 -0.62,0.09 -0.83,0.18 -0.42,0.2 -0.63,0.43 -1.21,0.44 -0.23,0 -0.35,0.04 -0.62,0.04 -0.83,-0.01 -0.57,0.02 -1.23,0.07 -0.25,0.02 -0.37,0.08 -0.61,0.08z"/>
  <rect class="fil1" x="0.31" y="2.82" width="3.4" height="53.59"/>
  <g id="_1715267739360">
   <path class="fil2" d="M30.83 47.73c0,0.68 0.31,1.34 1.07,1.34 0.28,0 0.74,-0.27 0.95,-0.43 0.18,-0.14 0.33,-0.3 0.54,-0.38 0.37,-0.13 0.93,-0.41 1.25,-0.63 0.21,-0.14 0.12,-0.05 0.36,-0.1 0.14,-0.04 0.36,-0.29 0.54,-0.39 0.22,-0.12 0.38,-0.18 0.56,-0.36 0.7,-0.69 1.44,-1.74 2.14,-2.53l1.06 -1.24c0.07,-0.09 0.14,-0.17 0.21,-0.25l2.13 -2.55c0.63,-0.78 1.26,-1.55 1.82,-2.37 0.07,-0.11 0.12,-0.16 0.19,-0.27l0.86 -1.44c0.15,-0.28 0.8,-1.38 0.81,-1.52 0.02,-0.24 -0.23,-0.29 -0.14,-0.68 0.07,-0.25 0.24,-0.44 0.27,-0.7 -0.2,0 -0.2,0 -0.35,0.04 0,-0.17 -0.03,-0.12 -0.04,-0.27 0.14,-0.1 0.17,-0.08 0.25,-0.26 0.09,-0.21 0.27,-0.35 0.46,-0.53 0.22,-0.23 -0.04,-0.43 0.16,-0.8 0.15,-0.28 0.31,-0.62 0.36,-0.94 0.01,-0.07 -0.01,-0.02 0.02,-0.1 0.05,-0.13 0.06,0 0.06,-0.09 0,-0.16 -0.08,-0.25 -0.08,-0.47 -0.08,-0.04 -0.12,-0.06 -0.19,-0.11 -0.18,0.12 -0.61,0.6 -0.76,0.78l-0.7 0.87c-0.45,0.58 -1.19,1.41 -1.68,1.93 -0.33,0.35 -0.56,0.86 -0.86,1.24l-0.92 1.16c-0.46,0.56 -0.38,0.57 -1,1.07 -0.06,0.05 -0.08,0.08 -0.13,0.13 -0.47,0.42 -0.42,0.47 -0.64,0.68 -0.16,0.15 -0.24,0.2 -0.36,0.4 -0.17,0.28 -0.41,0.48 -0.63,0.71 -0.09,0.08 -0.16,0.17 -0.25,0.25 -0.67,0.58 -0.76,0.84 -1.27,1.34 -0.11,0.11 -0.14,0.15 -0.23,0.26 -0.43,0.54 -1.29,1.39 -1.71,1.94 -0.16,0.2 -0.36,0.35 -0.53,0.54 -0.25,0.28 -0.45,0.57 -0.71,0.83 -0.35,0.34 -0.75,0.64 -1.1,0.98l-0.75 0.82c-0.16,0.2 -0.49,0.68 -0.6,0.93 -0.17,0.38 -0.44,0.71 -0.44,1.17z"/>
   <path class="fil3" d="M11.8 29.35c0.01,0.17 0.05,0.41 0.13,0.57 0.09,0.18 0.24,0.13 0.29,0.4 0.06,0.3 0.14,0.38 -0.06,0.66 -0.12,0.15 -0.06,0.15 -0.13,0.29 0.08,0.11 0.03,0.05 0.15,0.12l0 0.39c-0.01,0.08 -0.02,-0.02 0.01,0.07 0.02,0.11 0.07,0.2 0.03,0.34 0.09,0.05 0.12,0.07 0.19,0.12l-0.08 0.27c0.43,0.27 0.13,0.53 0.35,0.88 0.06,0.1 0.13,0.15 0.18,0.29 0.11,0.3 0.15,0.26 0.32,0.59 0.13,0.27 0.44,0.5 0.64,0.75 0.08,0.1 0.14,0.18 0.22,0.28 0.22,0.27 0.41,0.27 0.95,0.88 0.3,0.33 0.6,0.66 0.86,1.02 0.19,0.27 0.43,0.53 0.55,0.84 0.09,0.23 0.26,0.33 0.39,0.53 0.07,0.11 0.11,0.16 0.2,0.26l1.08 1.26c0.08,0.13 0.09,0.15 0.2,0.25 0.28,0.27 0.42,0.51 0.66,0.73 0.1,0.1 0.17,0.13 0.27,0.23l0.84 1c0.14,0.17 0.32,0.3 0.47,0.45 0.07,0.06 0.14,0.17 0.2,0.26 0.09,0.1 0.15,0.18 0.22,0.28 0.19,0.25 0.6,0.83 0.82,1.02 0.15,0.15 0.3,0.31 0.42,0.5 0.44,0.74 0.13,0.69 0.59,1.29 0.21,0.29 0.42,0.46 0.72,0.66l1.1 0.78c0.11,0.07 0.22,0.1 0.31,0.16 0.08,0.05 0.14,0.12 0.25,0.2 0.56,0.37 1.17,0.72 1.89,0.72 0.24,0 0.65,-0.19 0.82,-0.34 0.19,-0.17 0.36,-0.42 0.42,-0.72 0.21,-1.02 -0.39,-1.25 -0.65,-1.56 -0.11,-0.13 -0.15,-0.18 -0.27,-0.31 -0.11,-0.1 -0.19,-0.18 -0.29,-0.29 -0.18,-0.2 -0.33,-0.44 -0.52,-0.63 -0.1,-0.1 -0.23,-0.16 -0.32,-0.25 -0.04,-0.05 -0.07,-0.1 -0.11,-0.16 -0.05,-0.07 -0.07,-0.09 -0.14,-0.17l-0.51 -0.68c-0.22,-0.33 -0.57,-0.59 -0.87,-0.85 -0.14,-0.11 -0.15,-0.2 -0.25,-0.32 -0.11,-0.11 -0.21,-0.13 -0.31,-0.27 -0.21,-0.29 -0.18,-0.36 -0.5,-0.65 -0.12,-0.12 -0.21,-0.15 -0.32,-0.29 -0.17,-0.21 -0.4,-0.39 -0.55,-0.6 -0.04,-0.05 -0.07,-0.12 -0.11,-0.16l-0.94 -1.09c-0.06,-0.08 -0.08,-0.08 -0.13,-0.15l-0.4 -0.52c-0.17,-0.22 -0.34,-0.41 -0.54,-0.61l-1.22 -1.27c-0.28,-0.26 -0.42,-0.63 -0.68,-0.9l-0.58 -0.57c-0.11,-0.11 -0.15,-0.2 -0.26,-0.31 -0.2,-0.21 -0.42,-0.33 -0.58,-0.57l-0.55 -0.64c-0.1,-0.09 -0.21,-0.17 -0.32,-0.26 -0.13,-0.1 -0.21,-0.14 -0.32,-0.25 -0.2,-0.21 -0.44,-0.32 -0.67,-0.49 -0.32,-0.23 -0.68,-0.89 -1.12,-1.21 -0.37,-0.27 -0.79,-0.89 -1.07,-1.27 -0.23,-0.3 -0.42,-0.4 -0.57,-0.59 -0.16,-0.19 -0.38,-0.47 -0.65,-0.54 -0.03,0.08 -0.09,0.11 -0.15,0.15z"/>
  </g>
  <circle class="fil4" cx="29.2" cy="35.74" r="5.5"/>
  <circle class="fil4" cx="51.26" cy="16.33" r="5.5"/>
  <g id="_1715267736384">
   <path class="fil5" d="M52.47 28.05c0,0.45 0.06,0.62 0.28,0.99 0.07,0.11 0.15,0.28 0.28,0.33 0.1,0.04 0.15,0.02 0.27,0.03 0.05,0.01 0.24,0.07 0.28,0.07 0.34,0 0.93,-0.43 1.16,-0.6 0.45,-0.34 0.38,-0.29 0.86,-0.45 0.32,-0.1 0.64,-0.26 0.92,-0.42l0.52 -0.36c0.18,-0.13 0.31,-0.27 0.52,-0.37 0.21,-0.1 0.14,-0.04 0.24,-0.22 0.01,-0.02 0.02,-0.04 0.04,-0.07l0.52 -0.48c0.06,-0.09 0.06,-0.12 0.19,-0.23 0.24,-0.19 1.03,-1.14 1.15,-1.35l0.17 -0.25c0.12,-0.13 0.14,-0.07 0.25,-0.2l0.27 -0.28c0.28,-0.28 0.49,-0.63 0.76,-0.93l0.39 -0.48c0.07,-0.11 0.14,-0.12 0.24,-0.22 0.08,-0.09 0.11,-0.14 0.19,-0.24 0.23,-0.25 0.38,-0.49 0.62,-0.72 0.1,-0.1 0.12,-0.13 0.21,-0.25 0.09,-0.11 0.13,-0.13 0.21,-0.25 0.23,-0.35 0.88,-1.28 1.13,-1.52 0.17,-0.16 0.43,-0.55 0.57,-0.77 0.13,-0.19 0.18,-0.17 0.3,-0.35l0.3 -0.39c0.07,-0.1 0.1,-0.16 0.17,-0.25l0.2 -0.27c0.34,-0.42 0.26,-0.41 0.48,-0.86 0.12,-0.24 0.21,-0.52 0.39,-0.73l0.4 -0.7c0.29,-0.44 0.36,-0.57 0.19,-0.81 -0.1,-0.15 -0.01,-0.09 -0.13,-0.13 0.01,-0.14 0.01,-0.07 0.03,-0.12l0.07 -0.12c0.05,-0.08 0.08,-0.15 0.12,-0.24 0.05,-0.11 0.05,-0.14 0.08,-0.26 0.12,-0.52 0.15,-0.31 -0.26,-0.3 -0.01,-0.1 -0.02,-0.1 -0.04,-0.19 0.11,-0.17 0.17,-0.16 0.26,-0.39 0.08,-0.18 0,-0.04 0.15,-0.16 0.16,-0.13 0.41,-0.38 0.39,-0.59 -0.05,-0.38 0.06,-0.44 0.27,-0.97 0.1,-0.23 0.2,-0.47 0.25,-0.71 0.02,-0.12 -0.02,-0.11 -0.05,-0.26 -0.04,-0.21 -0.04,-0.33 -0.31,-0.34 -0.04,0.15 -0.13,0.28 -0.23,0.39 -0.09,0.09 -0.17,0.06 -0.24,0.19 -0.14,0.29 -0.51,0.57 -0.71,0.85 -0.3,0.41 -0.71,0.71 -0.99,1.12l-0.49 0.59c-0.09,0.1 -0.18,0.17 -0.26,0.27l-1.82 2.41c-0.09,0.12 -0.13,0.17 -0.22,0.27 -0.11,0.13 -0.1,0.18 -0.23,0.31 -0.18,0.18 -0.3,0.42 -0.51,0.56 -0.18,0.12 -0.23,0.26 -0.4,0.37 -0.1,0.07 -0.06,0.01 -0.17,0.11 -0.12,0.11 -0.06,0.14 -0.3,0.34 -0.15,0.12 -0.1,0.12 -0.13,0.15 -0.21,0.23 -0.35,0.43 -0.6,0.62 -0.14,0.09 -0.17,0.16 -0.23,0.31 -0.05,0.1 -0.28,0.29 -0.37,0.39l-1.4 1.52c-0.08,0.1 -0.15,0.21 -0.23,0.31 -0.01,0 -0.02,0.01 -0.02,0.02l-0.27 0.23c-0.18,0.17 -0.19,0.33 -0.47,0.56 -0.17,0.14 -0.33,0.42 -0.47,0.6 -0.11,0.15 -0.29,0.26 -0.43,0.38l-0.4 0.41c-0.2,0.17 -0.59,0.62 -0.71,0.86 -0.12,0.24 -0.3,0.4 -0.52,0.56l-0.22 0.13c0,0 -0.03,0.02 -0.04,0.03l-0.18 0.17c-0.3,0.21 -0.29,0.22 -0.52,0.47 -0.01,0 -0.01,0.01 -0.02,0.02 -0.01,0 -0.01,0.01 -0.02,0.01l-0.36 0.41c-0.1,0.13 -0.15,0.17 -0.26,0.28 -0.43,0.43 -0.34,0.59 -0.6,1.01 -0.09,0.14 -0.13,0.12 -0.22,0.32 -0.12,0.3 -0.24,0.5 -0.24,0.83z"/>
   <path class="fil6" d="M33.78 10.06c0,0 0.14,0.55 0.14,0.55 0.08,0.16 0.07,0.05 0.19,0.16 0.18,0.18 0.21,0.61 0.1,0.79 -0.21,0.34 -0.32,0.48 -0.11,0.83 0.09,0.16 0.06,0.21 0.1,0.39 0.04,0.15 0.11,0.22 0.15,0.36l0.11 0.38c0.04,0.15 0.1,0.23 0.12,0.38 0.03,0.19 0,0.29 0.07,0.43l1.15 1.38c0.09,0.11 0.14,0.18 0.22,0.28 0.08,0.1 0.15,0.18 0.22,0.28 0.16,0.19 0.37,0.28 0.51,0.49 0.12,0.19 0.12,0.14 0.26,0.27 0.3,0.26 0.95,1 1.12,1.38 0.1,0.26 0.3,0.5 0.48,0.71l0.8 0.89c0.07,0.09 -0.05,-0.05 0.03,0.04l0.27 0.34c0.25,0.34 0.58,0.6 0.85,0.92l0.58 0.68c0.07,0.1 0.15,0.19 0.23,0.28 0.04,0.04 0.07,0.07 0.12,0.11l0.25 0.25c0.14,0.15 0.19,0.17 0.37,0.39 0.3,0.39 0.58,0.78 0.95,1.08 0.18,0.15 0.63,0.63 0.72,0.82 0.08,0.13 0.14,0.19 0.21,0.29 0.33,0.55 0.67,1.54 1.06,1.97l0.58 0.42c0.21,0.1 0.14,0.05 0.31,0.19 0.09,0.08 0.21,0.11 0.34,0.2l0.61 0.39c0.11,0.06 0.21,0.2 0.43,0.33 0.41,0.25 0.35,0.24 0.82,0.45 0.28,0.12 0.68,0.19 1.03,0.19 0.35,0 0.6,-0.28 0.78,-0.48 0.1,-0.12 0.37,-0.7 0.37,-0.9 0,-0.47 -0.42,-1.12 -0.76,-1.38 -0.3,-0.24 -0.52,-0.56 -0.8,-0.81 -0.2,-0.17 -0.39,-0.32 -0.54,-0.54 -0.14,-0.21 -0.48,-0.62 -0.68,-0.78 0,0 -0.04,-0.03 -0.04,-0.03 -0.01,-0.01 -0.04,-0.03 -0.05,-0.04 -0.2,-0.18 -0.55,-0.74 -0.73,-0.87 -0.29,-0.22 -0.28,-0.26 -0.51,-0.57 -0.05,-0.08 -0.05,-0.07 -0.13,-0.14 -0.31,-0.29 -0.55,-0.74 -0.88,-1 -0.12,-0.11 -0.17,-0.12 -0.28,-0.26l-0.99 -1.15c-0.17,-0.21 -0.53,-0.73 -0.75,-0.87 -0.55,-0.34 -0.7,-0.83 -1.02,-1.12 -0.2,-0.19 -0.28,-0.41 -0.5,-0.58 -0.47,-0.34 -0.66,-0.93 -1.1,-1.32 -0.1,-0.09 -0.05,-0.01 -0.13,-0.13 -0.13,-0.17 -0.06,-0.16 -0.25,-0.29 -0.15,-0.12 -0.15,-0.11 -0.26,-0.27 -0.13,-0.18 -0.12,-0.14 -0.28,-0.27 -0.2,-0.17 -0.29,-0.4 -0.51,-0.56 -0.15,-0.12 -0.14,-0.18 -0.26,-0.28 -0.1,-0.08 -0.22,-0.13 -0.32,-0.21 -0.32,-0.27 -0.25,-0.4 -0.81,-0.8l-0.86 -0.75c-0.1,-0.12 -0.13,-0.18 -0.25,-0.29 -0.05,-0.06 -0.08,-0.09 -0.13,-0.14l-0.37 -0.44c-0.08,-0.12 -0.13,-0.19 -0.25,-0.29l-0.55 -0.52c-0.21,-0.17 -0.65,-0.81 -0.92,-1.07 -0.08,-0.09 -0.29,-0.3 -0.4,-0.3 -0.05,0 -0.23,0.11 -0.23,0.16z"/>
  </g>
  <g id="_1715267788000">
   <path class="fil7" d="M49.94 58.17l0.53 0 0 -2.88c0.08,0.06 0.18,0.25 0.26,0.36l1.45 2.23c0.26,0.39 0.12,0.33 0.82,0.33l0 -3.77 -0.53 0 0 2.92 -0.97 -1.45c-0.15,-0.23 -0.91,-1.32 -0.95,-1.47l-0.61 0 0 3.73z"/>
   <path class="fil7" d="M55.34 58.17l0.54 0 0 -2.88c0.08,0.06 0.18,0.25 0.25,0.36l1.46 2.23c0.26,0.39 0.12,0.33 0.82,0.33l0 -3.77 -0.53 0 0 2.92 -0.49 -0.71c-0.17,-0.26 -0.31,-0.48 -0.48,-0.74 -0.15,-0.23 -0.91,-1.32 -0.95,-1.47l-0.62 0 0 3.73z"/>
   <path class="fil7" d="M22.7 57.74c-0.44,0 -0.88,0.02 -1.22,-0.43 -0.69,-0.94 -0.21,-2.44 0.87,-2.44l0.27 0c1.24,0 1.73,1.96 0.57,2.72 -0.11,0.06 -0.32,0.15 -0.49,0.15zm-0.39 -3.37l0.44 0c0.25,0.02 0.48,0.09 0.68,0.19 0.22,0.11 0.31,0.22 0.49,0.39 0.76,0.77 0.61,2.52 -0.53,3.1 -0.21,0.11 -0.46,0.17 -0.72,0.19l-0.4 0c-0.23,-0.02 -0.45,-0.07 -0.64,-0.16 -0.19,-0.1 -0.36,-0.2 -0.5,-0.34 -0.5,-0.54 -0.51,-1.01 -0.51,-1.65 0,-0.45 0.28,-0.93 0.51,-1.18 0.3,-0.32 0.73,-0.5 1.18,-0.54z"/>
   <path class="fil7" d="M31.02 57.74c-0.44,0 -0.87,0.02 -1.21,-0.43 -0.7,-0.94 -0.22,-2.44 0.87,-2.44l0.27 0c1.03,0 1.63,1.43 0.91,2.4 -0.18,0.24 -0.52,0.47 -0.84,0.47zm-0.39 -3.37l0.45 0c0.24,0.02 0.47,0.09 0.67,0.19 1.32,0.67 1.25,2.83 -0.04,3.49 -0.2,0.1 -0.43,0.17 -0.67,0.19l-0.46 0c-0.43,-0.04 -0.85,-0.21 -1.12,-0.5 -0.51,-0.54 -0.51,-1.01 -0.51,-1.65 0,-0.45 0.28,-0.93 0.51,-1.18 0.29,-0.32 0.73,-0.5 1.17,-0.54z"/>
   <path class="fil7" d="M59.1 56.13l0 0.39c0,0.91 0.78,1.72 1.69,1.72l0.04 0c1.16,0 0.97,-0.19 1.46,-0.3l0 -1.65 -1.57 0c0,0.64 -0.19,0.5 1.07,0.5l0 0.8c-0.61,0.14 -0.13,0.15 -1,0.15 -0.63,0 -1.15,-0.66 -1.15,-1.38 0,-0.81 0.42,-1.49 1.19,-1.49 1,0 0.73,0.19 1.23,0.3 0.04,-0.09 0.14,-0.37 0.15,-0.5 -0.25,-0.16 -0.6,-0.27 -0.97,-0.3l-0.43 0c-0.46,0.04 -0.92,0.21 -1.21,0.54 -0.24,0.27 -0.5,0.71 -0.5,1.22z"/>
   <path class="fil7" d="M47.46 56.29l-0.26 0.01c-0.06,-0.19 -0.04,-1.14 -0.02,-1.39 0.21,-0.03 0.72,-0.06 0.87,0.03 0.23,0.11 0.33,0.05 0.49,0.29 0.11,0.16 0.13,0.41 0.04,0.62 -0.16,0.37 -0.62,0.44 -1.12,0.44zm-0.79 1.88l0.54 0 0 -1.42 0.5 0c0.15,0 0.01,0.01 0.11,-0.04l0.89 1.46 0.65 0 -1 -1.54c0.25,-0.12 0.33,-0.11 0.53,-0.31 0.55,-0.55 0.33,-1.88 -0.83,-1.88l-1.39 0 0 3.73z"/>
   <path class="fil7" d="M44.56 55.06c0.04,0.15 0.08,0.25 0.14,0.4l0.44 1.29 -1.19 0c0.01,-0.16 0.35,-1.01 0.45,-1.28l0.16 -0.41zm-1.72 3.11l0.57 0 0.35 -0.92 1.61 0c0.02,0.27 0.24,0.65 0.31,0.92l0.57 0c-0.08,-0.15 -0.1,-0.27 -0.17,-0.45l-1.21 -3.28 -0.65 0c-0.02,0.18 -0.6,1.67 -0.68,1.86l-0.52 1.4c-0.05,0.14 -0.11,0.34 -0.18,0.47z"/>
   <path class="fil7" d="M40.73 57.7c-0.06,-0.09 -0.04,-0.2 -0.04,-0.57 0,-0.2 0,-0.4 0.01,-0.62l1.54 0 0 -0.45 -1.51 -0.01 -0.03 -1.15 1.84 0 0 -0.46 -2.35 0 0 3.73 2.38 0 0 -0.46 -1.84 -0.01z"/>
   <path class="fil7" d="M33.9 58.17l0 -1.57 1.5 -0.01 0 -0.46 -1.46 0c-0.01,-0.01 -0.01,-0.03 -0.01,-0.02l-0.02 -1.2 1.79 -0.01c0.03,-0.04 0.02,0.01 0.03,-0.08l0.01 -0.38 -2.34 0 0 3.73 0.5 0z"/>
   <path class="fil7" d="M25.88 56.79l0 1.38 0.54 0 0 -1.38c0,-0.15 0.2,-0.46 0.29,-0.6 0.12,-0.2 0.22,-0.37 0.34,-0.58 0.1,-0.2 0.2,-0.36 0.32,-0.56 0.08,-0.15 0.28,-0.46 0.31,-0.61l-0.57 0c-0.15,0.28 -0.32,0.55 -0.47,0.84 -0.1,0.17 -0.42,0.7 -0.45,0.85 -0.13,-0.09 -0.92,-1.54 -1,-1.69l-0.61 0c0.15,0.3 1.3,2.17 1.3,2.35z"/>
   <polygon class="fil7" points="37.24,58.17 39.58,58.17 39.58,57.71 37.77,57.71 37.77,54.44 37.24,54.44 "/>
   <path class="fil7" d="M19.36 57.09c0,0.69 -0.42,0.65 -0.73,0.65 -0.3,0 -0.41,-0.17 -0.61,-0.23 -0.06,0.11 -0.08,0.37 -0.08,0.54 0.47,0.11 0.06,0.19 0.98,0.19l0.06 0c0.51,0 0.92,-0.52 0.92,-1.07l0 -2.73 -0.54 0 0 2.65z"/>
   <polygon class="fil7" points="53.89,58.17 54.42,58.17 54.42,54.44 53.89,54.44 "/>
   <path class="fil7" d="M40.73 57.7l0 -1.14 1.53 0 -0.02 -0.5 0 0.45 -1.54 0c-0.01,0.22 -0.01,0.42 -0.01,0.62 0,0.37 -0.02,0.48 0.04,0.57z"/>
   <path class="fil7" d="M47.46 56.29l-0.25 0 0 -1.35 0.84 0c-0.15,-0.09 -0.66,-0.06 -0.87,-0.03 -0.02,0.25 -0.04,1.2 0.02,1.39l0.26 -0.01z"/>
   <polygon class="fil7" points="40.73,56.05 40.73,54.94 42.57,54.94 42.54,54.44 42.54,54.9 40.7,54.9 "/>
   <path class="fil7" d="M33.94 56.13l0 -1.19 1.68 0c0.09,-0.02 0.03,-0.01 0.08,-0.04l-1.79 0.01 0.02 1.2c0,-0.01 0,0.01 0.01,0.02z"/>
   <path class="fil7" d="M33.9 58.17l0.04 -1.54c0.24,0 0.48,0 0.73,0 0.14,0 0.61,0.04 0.73,-0.04l-1.5 0.01 0 1.57z"/>
  </g>
  <g id="_1715267749088">
   <path class="fil7" d="M174.57 29.79c-0.42,-0.04 0.06,-0.11 -0.76,0.01 0.12,-0.24 0.21,-0.48 0.33,-0.73l2.12 -5.42 0.7 0c0.02,0.23 0.17,0.56 0.26,0.8l0.59 1.51c0.11,0.29 0.18,0.53 0.31,0.81l1.24 3.02 -0.94 -0.06c-0.29,0 -0.26,0.05 -0.52,0.06 -0.1,-0.2 -0.57,-1.6 -0.59,-1.81l-2.1 0c-0.07,0.29 -0.21,0.59 -0.31,0.91 -0.11,0.32 -0.19,0.64 -0.33,0.9zm-42.73 0c-0.41,-0.04 0.06,-0.11 -0.75,0.01 0.05,-0.27 0.48,-1.14 0.62,-1.49l1.83 -4.66 0.64 0c0.05,0.22 0.21,0.57 0.28,0.77l2.18 5.37 -0.88 -0.06c-0.33,0 -0.35,0.06 -0.64,0.06 -0.02,-0.26 -0.34,-1.07 -0.45,-1.43 -0.17,-0.54 0,-0.38 -2.07,-0.38 -0.23,0 -0.35,0.63 -0.43,0.85 -0.11,0.35 -0.25,0.62 -0.33,0.96zm25.49 0.11c-2.18,0 -3.34,-1.05 -3.34,-3.15 0,-2.06 1.44,-3.1 3.51,-3.1 2,0 3.16,1.15 3.16,3.16 0,1.92 -1.4,3.09 -3.33,3.09zm-7.6 -5.02l0 3.91c0,0.43 0.06,0.59 0.06,1l-0.94 -0.06c-0.29,0 -0.26,0.05 -0.52,0.06 0,-0.71 0.05,-1.21 0.05,-1.93l0 -2.28c0,-0.68 -0.05,-1.14 -0.05,-1.81l0.81 0.06c0.33,0 0.35,-0.06 0.65,-0.06 0,0.45 -0.06,0.65 -0.06,1.11zm-66.45 0l0 3.68c0,0.5 0.05,0.74 0.05,1.23l-0.93 -0.06c-0.3,0 -0.26,0.05 -0.53,0.06 0,-0.68 0.06,-1.13 0.06,-1.81l0 -2.4c0,-0.68 -0.06,-1.14 -0.06,-1.81l0.82 0.06c0.33,0 0.35,-0.06 0.64,-0.06 0,0.45 -0.05,0.65 -0.05,1.11zm30.27 -1.11l2.28 0c2.3,0 2.08,1.98 1.44,2.55 -0.31,0.29 -0.61,0.31 -0.97,0.49 0.07,0.28 1.64,2.44 1.93,2.98l-0.88 -0.06c-0.33,0 -0.35,0.06 -0.64,0.06 -0.15,-0.28 -1.57,-2.69 -1.82,-2.87 0,0.49 0.01,0.98 0,1.47 0,0.53 0.06,0.85 0.06,1.4l-0.87 -0.06c-0.3,0 -0.27,0.05 -0.53,0.06 0,-0.34 0.04,-0.43 0.06,-0.7 0.01,-0.25 -0.02,-0.52 0,-0.76 0.01,-0.27 0.06,-0.36 0.06,-0.7l-0.06 -2.29c-0.02,-0.25 0.01,-0.55 0,-0.81 -0.01,-0.31 -0.06,-0.4 -0.06,-0.76zm13.73 0.76l0 4.73c0,0.3 0.06,0.26 0.06,0.53 -0.36,-0.09 -0.39,-0.09 -0.76,0l-3.85 -4.21 0 4.21c-0.37,-0.09 -0.34,-0.09 -0.71,0 0,-0.64 0.06,-1.05 0.06,-1.7l0 -2.39c0,-0.72 -0.06,-1.22 -0.06,-1.93 1.08,0 0.86,-0.16 2.01,1.21l2.61 2.82 0 -4.03 0.7 0c0,0.33 -0.06,0.4 -0.06,0.76zm37.47 -0.76c1.45,0 0.73,-0.12 1.82,0.98 0.21,0.21 0.28,0.29 0.47,0.52l1.4 1.52c0.35,0.35 0.63,0.77 0.98,1.01 0,-0.68 0,-1.36 0,-2.04 0,-0.75 -0.05,-1.28 -0.05,-1.99l0.7 0 -0.06 4.44c0,0.61 0.06,0.98 0.06,1.58 -0.29,-0.14 -0.49,-0.02 -0.76,0 -0.17,-0.31 -0.25,-0.3 -0.45,-0.54l-3.12 -3.44c-0.11,-0.15 -0.09,-0.18 -0.29,-0.23l0 3.16c0,0.44 0.06,0.63 0.06,1.05 -0.37,-0.09 -0.4,-0.09 -0.76,0 0,-0.25 0.06,-0.28 0.06,-0.58 0.01,-1.22 0.14,-2.9 0,-4.11 -0.02,-0.22 0,-0.47 0,-0.69 0,-0.32 -0.06,-0.35 -0.06,-0.64zm-20.52 0.76c-0.26,-0.13 -1.29,-0.12 -1.69,-0.12l0 3.92c0,0.57 0.06,0.9 0.06,1.46l-0.94 -0.06c-0.29,0 -0.26,0.05 -0.52,0.06 0.16,-0.34 0.11,-4.77 0.11,-5.38 -0.4,0 -1.43,-0.01 -1.69,0.12l0 -0.76 2.75 0.06c0.71,0 1.21,-0.06 1.92,-0.06l0 0.76zm40.27 1.46l0 1.99c0,0.49 0.06,0.74 0.06,1.22l1 -0.05c0.38,0 0.56,-0.06 0.99,-0.06l0 0.52c0,0.23 -0.02,0.02 0.06,0.18 -0.41,0 -0.57,-0.06 -1,-0.06l-1.58 0c-0.38,0 -0.5,0.06 -0.87,0.06l0.12 -3.69c0,-0.35 -0.06,-0.42 -0.07,-0.75 0,-0.27 0.02,-0.55 0.01,-0.82 -0.01,-0.31 -0.06,-0.4 -0.06,-0.76 0.29,0 0.31,0.06 0.7,0.06 0.36,0 0.43,-0.06 0.76,-0.06 -0.06,0.72 -0.12,1.41 -0.12,2.22zm-78.61 -2.22l3.39 0c-0.05,0.24 -0.11,0.45 0,0.7l-1.98 -0.06 0 1.93c0.37,0 0.48,-0.06 0.87,-0.06l1.05 0 0 0.7 -1.92 -0.11 0 2.28c0.88,0 1.19,-0.06 1.98,-0.12 -0.11,0.5 -0.03,0.31 0,0.76l-2.51 -0.06c-0.39,0 -0.51,0.06 -0.88,0.06 0.15,-1.8 0.12,-2.5 0.12,-4.33 0,-0.33 -0.04,-1.52 -0.12,-1.69zm-8.2 0.7c-0.19,0.11 -0.35,0.05 -0.58,0.07l0.01 -0.83 0.86 0.06c1.07,0.21 2.75,0 3.88,0 -0.1,0.45 -0.01,0.36 0,0.76 -0.25,-0.12 -1.26,-0.12 -1.69,-0.12l0 4.03c0,0.54 0.05,0.84 0.05,1.35 -0.25,-0.01 -0.37,-0.06 -0.7,-0.06 -0.34,0 -0.5,0.05 -0.76,0.06 0.18,-2.08 0.09,-2.91 0.12,-4.91 0.01,-0.42 0.07,-0.47 -0.34,-0.48 -0.3,0 -0.65,-0.01 -0.85,0.07zm-9.91 -0.7c1.52,0 0.81,-0.01 2.03,1.18l2.64 2.85 0 -4.03 0.7 0c-0.12,0.52 -0.14,5.72 0,6.02 -0.36,-0.09 -0.39,-0.09 -0.76,0l-2.38 -2.65c-0.22,-0.21 -0.3,-0.31 -0.5,-0.55 -0.16,-0.19 -0.33,-0.32 -0.49,-0.5 -0.18,-0.19 -0.27,-0.44 -0.54,-0.51 0,0.7 0,1.4 0,2.1 0,0.78 0.05,1.35 0.05,2.11 -0.23,-0.06 -0.45,-0.12 -0.7,0 0,-0.79 0.17,-5.52 -0.05,-6.02zm-8.68 -1.46l0 9.18 109.9 0 0 -9.18 -109.9 0z"/>
   <path class="fil7" d="M116.3 42.12c0,1.32 -0.06,2.46 -0.06,3.74 0,0.68 -0.06,1.19 -0.06,1.87l-0.12 1.81c0.79,0 0.94,-0.2 2.23,-0.07 0.26,0.03 0.55,0.07 0.75,0.07 0,-0.29 -0.03,-0.3 -0.05,-0.53 -0.02,-0.2 0.01,-0.43 -0.01,-0.63 -0.12,-1.51 -0.05,-4.46 -0.05,-6.08 0.63,0 1.05,-0.06 1.69,-0.06l1.81 0c0.65,0 1.06,0.06 1.7,0.06l0 4.03c0,1.14 -0.12,2.11 -0.12,3.21 0.89,-0.02 0.94,-0.19 2.17,-0.06 0.24,0.02 0.58,0.06 0.75,0.06 0,-0.98 -0.12,-1.85 -0.11,-2.8 0,-0.98 -0.06,-1.84 -0.06,-2.87l0 -3.44c0,-1.05 0.06,-1.93 0.06,-2.93 0,-0.99 0.11,-1.91 0.11,-2.92 -0.78,0 -0.91,0.2 -2.17,0.07 -0.25,-0.03 -0.54,-0.07 -0.75,-0.07 0,1.17 0.12,2.23 0.12,3.45l0 2.63 -3.27 0.06c-0.72,0 -1.22,-0.06 -1.93,-0.06 0,-1.34 -0.05,-3.47 0.05,-4.74l0.06 -1.34c-0.51,0 -0.94,0.12 -1.52,0.12 -0.57,0 -0.96,-0.12 -1.46,-0.12l0.12 1.81c0,0.71 0.06,1.19 0.06,1.87 0,1.33 0.06,2.5 0.06,3.86z"/>
   <path class="fil7" d="M161.94 42.12c0,-2.03 0.44,-5.44 2.56,-6.33 1.7,-0.72 3.3,0.1 4.09,1.67 0.85,1.71 0.89,3.08 0.89,5.13 0,1.91 -0.53,4.24 -1.95,5.35 -1.08,0.85 -2.7,0.79 -3.7,-0.05 -1.46,-1.23 -1.89,-3.68 -1.89,-5.77zm3.77 7.71l-0.06 0c-1.07,0 -2.24,-0.25 -2.99,-0.6 -0.79,-0.37 -1.52,-0.92 -2,-1.56 -0.91,-1.19 -1.28,-2.33 -1.48,-3.9l-0.1 -1.65c0.12,-2.09 0.31,-3.7 1.64,-5.49 1.38,-1.84 3.31,-2.34 5.49,-2.34 4.25,0 6.14,3.6 6.14,7.25 0,2.63 -0.23,4.21 -1.82,6.18 -0.99,1.22 -2.63,2.11 -4.82,2.11z"/>
   <path class="fil7" d="M100.34 11.79c0,-1.62 0.26,-3.15 0.76,-4.27 0.45,-1 1.38,-2.22 2.81,-2.22 0.87,0 1.46,0.06 2.17,0.69 0.44,0.39 0.71,0.82 0.98,1.36 1.37,2.71 1.53,10.92 -2.98,10.92 -3.06,0 -3.74,-4 -3.74,-6.48zm3.92 -7.78l0.07 0c4.26,0.01 6.41,3.11 6.41,7.31 0,2.59 -0.22,4.12 -1.77,6.11 -1.06,1.36 -2.79,2.13 -5.01,2.13 -2.28,0 -4,-0.94 -4.98,-2.26 -1.08,-1.45 -1.66,-3.86 -1.45,-5.64 0.03,-0.29 -0.02,-0.62 0.01,-0.92 0.09,-0.76 0.24,-1.51 0.47,-2.22 0.16,-0.47 0.31,-0.84 0.54,-1.27 0.58,-1.09 1.63,-2.13 2.79,-2.65 0.78,-0.35 1.79,-0.58 2.92,-0.59z"/>
   <path class="fil7" d="M139.56 42.06c0,-1.79 0.28,-3.52 1.17,-5.02 0.44,-0.74 1.26,-1.35 2.28,-1.47 3.04,-0.34 4.09,3.31 4.09,5.73 0,2.1 0.05,3.47 -0.9,5.36 -1.51,3.04 -6.64,3.09 -6.64,-4.6zm3.76 7.77l-0.05 0c-1.87,0 -3.49,-0.57 -4.78,-1.91 -0.24,-0.24 -0.53,-0.67 -0.71,-0.99 -1.03,-1.89 -1.03,-3.21 -1.03,-5.34 0,-3.68 2.28,-7.3 6.49,-7.3l0.7 0c1.9,0 3.7,0.97 4.69,2.44 1,1.5 1.07,2.48 1.3,4.02l-0.1 3.28c-0.09,0.51 -0.19,0.92 -0.36,1.4 -0.15,0.43 -0.33,0.83 -0.54,1.21 -1.15,2.06 -3.14,3.19 -5.61,3.19z"/>
   <path class="fil7" d="M177.55 10.5l0 2.98c0,1.04 -0.06,1.94 -0.06,2.92 0,0.98 -0.12,1.91 -0.12,2.87 0.21,-0.02 0.56,-0.11 0.76,-0.11 0.2,0 0.55,0.09 0.76,0.11 0,-1.76 -0.06,-3.36 -0.06,-5.15 0,-1.75 0,-3.5 0,-5.25 0.21,0.13 0.77,0.97 0.97,1.25 1.77,2.34 4.97,6.67 6.63,9.15 0.24,-0.01 0.57,-0.1 0.77,-0.11 0.22,0 0.56,0.1 0.81,0.11 -0.23,-2.75 -0.18,-6.53 -0.18,-9.35 0,-0.4 0.06,-0.65 0.06,-1.11 0,-0.76 0,-1.52 0,-2.28l0.06 -1.7c0.01,-0.28 0.05,-0.27 0.06,-0.52l-0.88 0.05c-0.32,0 -0.34,-0.05 -0.64,-0.05 0,1.7 0.06,3.21 0.06,4.91 0,1.67 0,3.35 0,5.02l-1.83 -2.44c-0.15,-0.23 -0.29,-0.38 -0.44,-0.61 -0.16,-0.23 -0.3,-0.42 -0.47,-0.64l-0.92 -1.24c-0.61,-0.85 -1.17,-1.65 -1.79,-2.48l-1.8 -2.52 -1.17 0.05c-0.35,0 -0.42,-0.05 -0.76,-0.05 0,1.04 0.12,2.01 0.12,3.04 0,1.07 0.06,2.03 0.06,3.15z"/>
   <path class="fil7" d="M89.59 7.23c0.16,0.15 0.27,0.48 0.39,0.69 0.17,-0.22 0.05,-0.48 0.19,-0.68l0.47 -1.88c-1.46,-0.98 -2.15,-1.09 -3.77,-1.32 -0.06,-0.01 -0.13,-0.02 -0.2,-0.03l-1.07 0c-1.18,0.1 -2.4,0.48 -3,0.85 -1.73,1.04 -2.68,2.55 -3.12,4.53 -0.76,3.44 0.08,7.66 2.96,9.37 2.01,1.2 5.11,0.83 7.4,0.06 0.33,-0.11 0.65,-0.24 0.97,-0.31 0,-0.51 0,-1.02 0.01,-1.52 0,-0.57 -0.1,-0.89 -0.02,-1.48 0.05,-0.4 0.01,-1.07 0.01,-1.5l0.06 -1.52 -2.74 0c0,0.3 0.03,0.36 0.05,0.59l0.06 1.92c0,0.9 0,1.79 0,2.69 -1.07,0.72 -2.96,0.81 -4.23,-0.15 -0.7,-0.53 -1.14,-1.34 -1.44,-2.18 -0.14,-0.39 -0.28,-1 -0.34,-1.47 -0.14,-0.98 -0.22,-2.42 -0.08,-3.46 0.16,-1.24 0.22,-1.78 0.72,-2.91 0.18,-0.42 0.44,-0.73 0.72,-1.09 0.87,-1.11 2.8,-1.37 4.04,-0.87 1.37,0.53 1.74,1.51 1.96,1.67z"/>
   <path class="fil7" d="M121.09 11.55l-0.41 0 0 -4.5c0,-0.57 0.06,-0.9 0.06,-1.46 0.24,-0.02 0.14,-0.06 0.52,-0.06 2.66,0 2.1,4.05 1.54,5.05 -0.28,0.51 -0.95,0.97 -1.71,0.97zm-2.98 -1.11l0 2.98c0,1.05 -0.06,1.93 -0.06,2.93 0,0.99 -0.12,1.91 -0.12,2.92l1.46 -0.12c0.29,0 0.37,0.05 0.71,0.06 0.33,0 0.4,0.06 0.76,0.06l-0.12 -1.52c-0.01,-0.57 -0.06,-1.01 -0.06,-1.64 0,-1.11 0,-2.22 0,-3.33 0.23,0.02 0.14,0.06 0.29,0.06 3.34,0 5.09,-1.33 5.09,-4.68 0,-1.62 -0.54,-3 -2.05,-3.56 -0.72,-0.27 -1.52,-0.29 -2.51,-0.29 -0.54,0 -0.84,0.06 -1.35,0.06l-1.57 -0.01c-0.33,0 -0.35,-0.05 -0.65,-0.05 0,1.06 0.12,1.99 0.12,3.04 0,1.05 0.06,1.99 0.06,3.09z"/>
   <path class="fil7" d="M135.53 8.51c0.15,0.12 0.17,0.31 0.24,0.52 0.2,0.62 1.26,3.93 1.27,4.39l-3.03 0c0.05,-0.7 1.39,-4.35 1.52,-4.91zm0 -4.5l0 0c0.26,0.01 0.23,0.06 0.52,0.06 0.63,0 0.42,-0.02 0.82,-0.06l0 0c0.15,0.32 0.46,1.52 0.61,1.97 0.11,0.35 0.17,0.64 0.29,0.99l1.49 4.77c0.21,0.64 0.4,1.25 0.61,1.9l1.91 5.63c-0.37,0 -0.49,-0.06 -0.88,-0.06l-1.23 0c-0.42,0 -0.58,0.06 -0.99,0.06 -0.01,-0.41 -0.98,-3.84 -1.11,-4.39 -0.45,0 -0.65,-0.05 -1.11,-0.05l-1.75 0c-0.5,0 -0.75,0.05 -1.23,0.05 -0.02,0.27 -0.22,0.83 -0.29,1.12 -0.1,0.36 -0.2,0.72 -0.31,1.09l-0.63 2.18c-0.26,-0.01 -0.23,-0.06 -0.52,-0.06l-1.06 0.06 3.14 -9.43c0.24,-0.71 1.69,-5.52 1.72,-5.83z"/>
   <path class="fil7" d="M164.98 8.51c0.15,0.12 0.17,0.31 0.24,0.52 0.07,0.2 0.13,0.39 0.21,0.62 0.15,0.45 1.06,3.36 1.07,3.77l-3.04 0c0.05,-0.6 1.51,-4.8 1.52,-4.91zm0 -4.5l0.01 0c0.26,0.01 0.23,0.06 0.52,0.06 0.63,0 0.42,-0.02 0.81,-0.06l0.01 0c0.12,0.27 0.22,0.65 0.31,0.98l0.88 2.92c1.04,3.53 2.24,6.96 3.4,10.45 0.1,0.29 0.2,0.67 0.32,0.91 -0.41,0 -0.57,-0.06 -1,-0.06l-1.17 0c-0.39,0 -0.5,0.06 -0.87,0.06 -0.11,-0.23 -0.23,-0.8 -0.31,-1.1l-0.86 -3.29c-0.45,0 -0.65,-0.05 -1.11,-0.05l-1.76 0c-0.49,0 -0.74,0.05 -1.22,0.05l-1.06 3.85c-0.04,0.13 -0.12,0.42 -0.17,0.54 -0.27,-0.01 -0.23,-0.06 -0.53,-0.06l-1.05 0.06 0.97 -2.83c0.82,-2.45 2.07,-6.02 2.76,-8.52 0.09,-0.35 0.2,-0.68 0.3,-0.99l0.56 -1.95c0.09,-0.31 0.24,-0.66 0.26,-0.97z"/>
   <path class="fil7" d="M79.36 38.26c0,2.3 0.3,3.14 2.35,4.67 1.32,0.99 2.91,1.67 2.91,3.28 0,2.4 -2.51,2.84 -3.72,1.39 -0.32,-0.38 -0.73,-1.24 -0.78,-1.86l-0.29 0c0,0.91 -0.53,2.51 -0.53,3.1 0.2,0.05 0.26,0.18 0.6,0.4 1.46,0.94 4.5,0.79 5.72,-0.74 0.36,-0.45 0.66,-0.88 0.87,-1.47 0.64,-1.74 0.49,-4.2 -0.98,-5.51 -1.37,-1.22 -4.05,-2.02 -4.05,-3.78 0,-0.84 0.16,-1.57 0.94,-1.93 0.9,-0.42 1.75,-0.03 2.32,0.54 0.19,0.18 0.38,0.42 0.5,0.67 0.32,0.67 0.07,0.71 0.51,0.72 0,-0.33 0.17,-0.9 0.25,-1.22 0.07,-0.28 0.27,-0.93 0.28,-1.24 -1.07,-0.71 -1.44,-0.99 -2.93,-0.99 -0.65,0 -1.2,0.13 -1.63,0.35 -1.39,0.69 -2.34,2.1 -2.34,3.62z"/>
   <path class="fil7" d="M95.96 41.77c0,1.8 0.18,3.3 0.95,4.83 0.22,0.43 0.43,0.71 0.69,1.06 1.79,2.42 5.79,2.78 8.32,1.27 0.3,-0.18 0.25,-0.19 0.32,-0.56 0.08,-0.41 0.29,-1.06 0.3,-1.46 -0.52,0 -0.55,0.45 -1.56,1.01 -0.72,0.4 -1.29,0.57 -2.18,0.57 -2.97,0 -4.04,-3.16 -4.04,-6.19l0 -0.71c0,-2.86 1.08,-5.96 3.86,-5.96 1.22,0 2.29,0.38 2.92,1.47 0.19,0.32 0.26,0.66 0.41,0.99 0.11,-0.05 0.07,-0.05 0.24,-0.06 0.07,-0.93 0.27,-1.87 0.46,-2.69 -0.21,-0.05 -1.17,-0.69 -2.6,-0.96 -1.6,-0.3 -3.57,-0.05 -4.93,0.85 -0.25,0.18 -0.44,0.3 -0.66,0.5 -0.5,0.44 -0.75,0.7 -1.17,1.3 -0.91,1.31 -1.33,3.13 -1.33,4.74z"/>
   <path class="fil7" d="M148.27 10.44l0 2.93c0,1.06 -0.06,1.97 -0.06,2.98 0,1 -0.12,1.9 -0.12,2.92 0.79,0 1.49,-0.12 2.34,-0.12l1.87 0c0.95,0 1.74,0.12 2.63,0.12 0,-0.4 -0.06,-0.62 -0.06,-0.94 -0.01,-0.32 0.06,-0.53 0.06,-0.93 -0.61,0 -1.28,0.16 -1.93,0.17l-2.05 0.12c0,-0.37 -0.06,-0.49 -0.05,-0.87l-0.06 -6.67c0,-1.04 0.06,-1.93 0.06,-2.92 0,-0.99 0.11,-1.91 0.11,-2.92 -0.43,0.01 -0.85,0.11 -1.69,0.11 -0.5,0 -0.82,-0.1 -1.23,-0.11 0,1.06 0.12,1.97 0.12,3.04 0,1.04 0.06,1.99 0.06,3.09z"/>
   <path class="fil7" d="M182.34 39.61l0 5.02c0,0.89 -0.06,1.62 -0.06,2.46 0.01,0.83 -0.11,1.6 -0.11,2.45 0.5,0 1.1,-0.12 1.63,-0.12l1.75 -0.05c0.3,0.01 0.45,0.06 0.82,0.06 0.31,-0.01 0.63,-0.01 0.94,-0.01 0.51,0.01 1.17,0.12 1.69,0.12l0 -1.87c-0.62,0 -2.09,0.24 -2.92,0.24 -0.45,-0.01 -0.66,0.05 -1.05,0.05 0,-0.45 -0.06,-0.71 -0.06,-1.1 0,-0.39 0.01,-0.79 0,-1.18 0,-0.37 -0.06,-0.65 -0.06,-1.1 0.01,-3.35 -0.04,-6.73 0.24,-10 -0.52,0 -0.95,0.12 -1.52,0.12 -0.57,0 -0.97,-0.12 -1.46,-0.12 0,0.83 0.11,1.63 0.11,2.46 0,0.87 0.06,1.64 0.06,2.57z"/>
   <path class="fil7" d="M155.4 26.52c0,0.77 0.01,1.56 0.49,2.19 0.97,1.28 3.36,1.04 3.36,-1.96 0,-0.74 -0.14,-1.28 -0.41,-1.75 -0.65,-1.14 -2.2,-1.2 -2.98,-0.12 -0.26,0.36 -0.46,1.01 -0.46,1.64z"/>
   <path class="fil7" d="M79.1 22.31l109.9 0 0 9.18 -109.9 0 0 -9.18zm-0.03 9.23l0 -8.84c0.01,-0.22 0.02,-0.35 0.03,-0.39 0.22,-0.11 0.58,-0.06 0.84,-0.06l109.12 0 0 9.29 -109.99 0z"/>
   <path class="fil7" d="M114.89 26.63c0.86,0 1.46,-0.18 1.46,-1.28 0,-1.09 -0.72,-1.11 -1.46,-1.11l0 2.39z"/>
   <path class="fil7" d="M132.72 27.45l1.58 0c-0.06,-0.23 -0.61,-1.89 -0.82,-2.04 -0.07,0.28 -0.73,1.63 -0.76,2.04z"/>
   <path class="fil7" d="M175.44 27.45l1.58 0c-0.01,-0.5 -0.57,-1.5 -0.7,-2.04 -0.18,0.13 -0.39,0.73 -0.48,0.97 -0.14,0.34 -0.26,0.78 -0.4,1.07z"/>
   <path class="fil7" d="M97.69 24.47l-0.5 0 0 -0.7 0.79 0 -0.86 -0.06 -0.01 0.83c0.23,-0.02 0.39,0.04 0.58,-0.07z"/>
   <path class="fil7" d="M90.17 7.24c-0.14,0.2 -0.02,0.46 -0.19,0.68 -0.12,-0.21 -0.23,-0.54 -0.39,-0.69 0.04,0.19 0.11,0.27 0.19,0.45 0.12,0.24 0.06,0.29 0.33,0.31 0,-0.34 0.06,-0.4 0.06,-0.75z"/>
  </g>
  <rect class="fil1" x="196.18" y="2.82" width="3.4" height="53.59"/>
 </g>
</svg>
